<svg width="32" height="32" viewBox="0 0 32 32" fill="none" xmlns="http://www.w3.org/2000/svg">
<path d="M16.336 24.6753C17.1799 24.6176 18.0167 24.4829 18.836 24.2727C19.8479 24.5769 20.916 24.6457 21.9587 24.474C22.0003 24.4689 22.0421 24.4658 22.084 24.4647C22.456 24.4647 22.944 24.678 23.656 25.1273V24.3887C23.6563 24.26 23.6911 24.1337 23.7568 24.023C23.8224 23.9124 23.9165 23.8213 24.0293 23.7593C24.3396 23.5842 24.6262 23.3873 24.8893 23.1687C25.9267 22.302 26.512 21.1447 26.512 19.9207C26.512 19.5167 26.448 19.114 26.3213 18.73C26.636 18.1513 26.8867 17.5473 27.0733 16.918C27.6733 17.8047 27.996 18.8513 28 19.9207C28 21.5847 27.216 23.1367 25.8573 24.2713C25.6298 24.4607 25.392 24.6349 25.144 24.794V26.5247C25.144 27.1193 24.448 27.462 23.9573 27.1073C23.4924 26.7652 23.0119 26.4449 22.5173 26.1473C22.3745 26.0649 22.2266 25.9915 22.0747 25.9273C21.6619 25.9884 21.2452 26.0192 20.828 26.0193C19.1347 26.0193 17.5693 25.5167 16.336 24.6753ZM7.37467 21.2153C5.236 19.4247 4 16.9833 4 14.3673C4 9.02333 9.10933 4.75 15.348 4.75C21.588 4.75 26.6987 9.022 26.6987 14.3673C26.6987 19.7113 21.588 23.9833 15.348 23.9833C14.6467 23.9833 13.9556 23.93 13.2747 23.8233C12.9813 23.8913 11.8053 24.5807 10.112 25.8007C9.49867 26.2433 8.62933 25.8167 8.62933 25.0713V22.1207C8.19016 21.8492 7.77128 21.5462 7.376 21.214M13.316 22.0033C13.3676 22.0033 13.4196 22.0073 13.472 22.0153C14.0853 22.1167 14.7107 22.1678 15.348 22.1687C20.6187 22.1687 24.836 18.642 24.836 14.366C24.836 10.0913 20.6187 6.56467 15.3493 6.56467C10.08 6.56467 5.86 10.094 5.86 14.3673C5.86 16.434 6.84667 18.3807 8.588 19.838C9.02711 20.2042 9.50533 20.5331 10.0227 20.8247C10.163 20.9026 10.2801 21.0163 10.3621 21.1543C10.4441 21.2922 10.488 21.4495 10.4893 21.61V23.3113C11.8293 22.4247 12.7107 22.0033 13.316 22.0033Z" fill="#5D5FEF"/>
<path d="M10.7494 16C11.1472 16 11.5287 15.842 11.8101 15.5607C12.0914 15.2794 12.2494 14.8978 12.2494 14.5C12.2494 14.1022 12.0914 13.7206 11.8101 13.4393C11.5287 13.158 11.1472 13 10.7494 13C10.3516 13 9.97003 13.158 9.68873 13.4393C9.40743 13.7206 9.24939 14.1022 9.24939 14.5C9.24939 14.8978 9.40743 15.2794 9.68873 15.5607C9.97003 15.842 10.3516 16 10.7494 16ZM15.6254 16C16.0232 16 16.4047 15.842 16.6861 15.5607C16.9674 15.2794 17.1254 14.8978 17.1254 14.5C17.1254 14.1022 16.9674 13.7206 16.6861 13.4393C16.4047 13.158 16.0232 13 15.6254 13C15.2276 13 14.846 13.158 14.5647 13.4393C14.2834 13.7206 14.1254 14.1022 14.1254 14.5C14.1254 14.8978 14.2834 15.2794 14.5647 15.5607C14.846 15.842 15.2276 16 15.6254 16ZM20.5001 16C20.8979 16 21.2794 15.842 21.5607 15.5607C21.842 15.2794 22.0001 14.8978 22.0001 14.5C22.0001 14.1022 21.842 13.7206 21.5607 13.4393C21.2794 13.158 20.8979 13 20.5001 13C20.1022 13 19.7207 13.158 19.4394 13.4393C19.1581 13.7206 19.0001 14.1022 19.0001 14.5C19.0001 14.8978 19.1581 15.2794 19.4394 15.5607C19.7207 15.842 20.1022 16 20.5001 16Z" fill="#5D5FEF"/>
</svg>
